#!OML:ASF F:\VICON\USERDATA\INSTALL\rory3\rory3.ASF
:FULLY-SPECIFIED
:DEGREES
912
root -0.983716 17.8522 7.86671 -202.056 69.9345 -195.735
lowerback 5.74411 3.41617 0.221467
upperback 3.35453 4.65377 0.144473
thorax 0.245028 2.37085 -0.226065
lowerneck -5.61007 -0.747985 -2.26699
upperneck 22.418 -1.33453 6.81643
head 7.8718 0.139184 2.58013
rclavicle 1.92573e-015 5.56597e-015
rhumerus 51.8635 27.958 -44.2088
rradius 67.6841
rwrist 40.4226
rhand -44.3396 -18.5182
rfingers 7.12502
rthumb -17.1481 -47.7815
lclavicle 1.92573e-015 5.56597e-015
lhumerus 25.9686 -9.66893 46.9553
lradius 75.3534
lwrist -27.5717
lhand -35.773 40.0695
lfingers 7.12502
lthumb -8.89076 69.8622
rfemur -2.54622 10.34 10.8858
rtibia 41.0348
rfoot -30.0861 -20.7026
rtoes -5.56576
lfemur -14.5709 -13.9591 -11.1781
ltibia 26.9912
lfoot -4.81005 3.88351
ltoes -15.6363
913
root -0.98616 17.8573 7.85383 -201.931 70.0294 -195.589
lowerback 5.79621 3.34916 0.412237
upperback 3.41315 4.57643 0.171565
thorax 0.288672 2.33591 -0.300718
lowerneck -5.67486 -0.724852 -2.20486
upperneck 22.1015 -1.27424 6.54479
head 7.77389 0.13019 2.47569
rclavicle 3.28243e-014 -1.11319e-014
rhumerus 51.299 27.9839 -44.2584
rradius 69.4595
rwrist 40.4162
rhand -44.5183 -17.9636
rfingers 7.12502
rthumb -17.3201 -47.2118
lclavicle 3.28243e-014 -1.11319e-014
lhumerus 24.6503 -9.41049 47.2599
lradius 77.5028
lwrist -28.0348
lhand -36.1069 40.1012
lfingers 7.12502
lthumb -9.21293 69.8799
rfemur -2.46607 10.4623 10.9624
rtibia 40.9211
rfoot -30.0159 -20.8139
rtoes -5.70232
lfemur -14.5082 -14.0846 -11.1345
ltibia 26.967
lfoot -5.03544 4.13913
ltoes -14.2561
914
root -0.988764 17.8625 7.84046 -201.889 70.1215 -195.553
lowerback 5.8101 3.25607 0.520722
upperback 3.47898 4.46034 0.217457
thorax 0.352332 2.28043 -0.30594
lowerneck -5.71685 -0.681268 -2.05728
upperneck 21.7475 -1.17007 6.12587
head 7.65715 0.133694 2.3111
rclavicle 5.27028e-014 -2.14687e-014
rhumerus 50.8713 28.0023 -44.4227
rradius 70.9992
rwrist 40.6776
rhand -46.3389 -20.3705
rfingers 7.12502
rthumb -19.0716 -49.4554
lclavicle 5.27028e-014 -2.14687e-014
lhumerus 23.1732 -9.03398 47.698
lradius 79.6391
lwrist -28.8384
lhand -36.6778 40.374
lfingers 7.12502
lthumb -9.76379 70.1276
rfemur -2.40713 10.6276 10.9948
rtibia 40.7959
rfoot -30.0435 -20.852
rtoes -5.63002
lfemur -14.4707 -14.2368 -11.1251
ltibia 26.9507
lfoot -5.17993 4.37181
ltoes -13.769
915
root -0.992964 17.8665 7.82337 -201.884 70.2312 -195.573
lowerback 5.88858 3.14296 0.513864
upperback 3.49666 4.31121 0.378221
thorax 0.312721 2.20457 -0.134594
lowerneck -5.76525 -0.622529 -2.01608
upperneck 21.5035 -1.00081 5.55221
head 7.57594 0.149862 2.12205
rclavicle -3.70485e-014 2.14687e-014
rhumerus 50.6387 28.186 -44.4102
rradius 72.309
rwrist 40.9824
rhand -50.4869 -26.5894
rfingers 7.12502
rthumb -23.0563 -55.2301
lclavicle -3.70485e-014 2.14687e-014
lhumerus 21.4571 -8.6388 48.1866
lradius 81.9414
lwrist -29.3594
lhand -36.9674 40.5433
lfingers 7.12502
lthumb -10.0432 70.2837
rfemur -2.39549 10.7503 10.9684
rtibia 40.6708
rfoot -29.9886 -20.8523
rtoes -5.51366
lfemur -14.4606 -14.1493 -11.1517
ltibia 26.9498
lfoot -5.12284 4.41536
ltoes -14.4318
916
root -0.997651 17.8723 7.80433 -202.04 70.3649 -195.758
lowerback 6.03015 3.0565 0.453582
upperback 3.48678 4.19514 0.538005
thorax 0.207092 2.14415 0.0590366
lowerneck -5.62699 -0.62233 -1.99945
upperneck 21.1106 -0.909882 4.98768
head 7.4166 0.124474 1.93215
rclavicle 1.35795e-013 3.02153e-014
rhumerus 50.3633 28.3669 -44.3366
rradius 73.5022
rwrist 41.1866
rhand -44.0616 -8.01865
rfingers 7.12502
rthumb -16.8805 -37.305
lclavicle 1.35795e-013 3.02153e-014
lhumerus 19.7182 -8.38586 48.6065
lradius 84.3323
lwrist -29.6047
lhand -36.8528 41.1664
lfingers 7.12502
lthumb -9.93265 70.9121
rfemur -2.40798 10.8711 10.8697
rtibia 40.5548
rfoot -29.8769 -20.8192
rtoes -5.5839
lfemur -14.4453 -13.9398 -11.2377
ltibia 26.9604
lfoot -5.0711 4.38768
ltoes -14.9088
917
root -1.00152 17.8768 7.78612 -202.45 70.4849 -196.236
lowerback 6.08254 2.97609 0.356579
upperback 3.48013 4.08368 0.592979
thorax 0.160247 2.08644 0.171853
lowerneck -5.15518 -0.655233 -1.97727
upperneck 20.4476 -0.898232 4.59862
head 7.11412 0.0721106 1.78993
rclavicle 8.69683e-014 -6.36111e-015
rhumerus 50.0813 28.5002 -44.4614
rradius 74.4538
rwrist 41.4687
rhand -45.2843 -9.32943
rfingers 7.12502
rthumb -18.0572 -38.5112
lclavicle 8.69683e-014 -6.36111e-015
lhumerus 18.0641 -8.15123 48.9678
lradius 86.5226
lwrist -30.0106
lhand -37.0803 41.7276
lfingers 7.12502
lthumb -10.1521 71.4626
rfemur -2.45341 10.9773 10.6523
rtibia 40.4561
rfoot -29.7588 -20.7689
rtoes -5.64307
lfemur -14.464 -13.7176 -11.3963
ltibia 27
lfoot -5.11283 4.30914
ltoes -14.6025
918
root -1.00619 17.878 7.77124 -202.712 70.6285 -196.571
lowerback 6.06961 2.88812 0.360684
upperback 3.50426 3.96749 0.635677
thorax 0.189543 2.02837 0.221549
lowerneck -4.65628 -0.671613 -2.05253
upperneck 19.7667 -0.882757 4.36227
head 6.80428 0.0297175 1.7163
rclavicle 4.78574e-014 -1.35174e-014
rhumerus 49.9588 28.6388 -44.6269
rradius 75.0155
rwrist 41.6829
rhand -47.3628 -11.7453
rfingers 7.12502
rthumb -20.056 -40.7302
lclavicle 4.78574e-014 -1.35174e-014
lhumerus 16.5889 -7.83921 49.3011
lradius 88.3213
lwrist -30.5003
lhand -37.9553 41.8662
lfingers 7.12502
lthumb -10.9961 71.5582
rfemur -2.52225 11.16 10.5242
rtibia 40.3757
rfoot -29.7229 -20.695
rtoes -5.60578
lfemur -14.5177 -13.3715 -11.476
ltibia 27.0476
lfoot -5.12895 4.17216
ltoes -14.6801
919
root -1.0107 17.8796 7.75695 -202.662 70.9001 -196.594
lowerback 6.03052 2.82223 0.52928
upperback 3.53291 3.88885 0.693129
thorax 0.247895 1.99135 0.194496
lowerneck -4.44292 -0.680621 -2.06362
upperneck 19.3846 -0.86456 4.12874
head 6.64281 0.00449219 1.63855
rclavicle 6.02318e-014 9.54166e-015
rhumerus 49.9549 28.8191 -44.7948
rradius 75.189
rwrist 41.8222
rhand -47.9933 -11.7214
rfingers 7.12502
rthumb -20.662 -40.6416
lclavicle 6.02318e-014 9.54166e-015
lhumerus 15.2703 -7.54978 49.4783
lradius 89.8858
lwrist -30.8061
lhand -38.8233 41.6474
lfingers 7.12502
lthumb -11.8332 71.293
rfemur -2.64949 11.4809 10.5668
rtibia 40.3212
rfoot -29.7541 -20.6087
rtoes -5.23282
lfemur -14.5668 -12.896 -11.4016
ltibia 27.0763
lfoot -5.09988 4.01198
ltoes -15.4143
920
root -1.01498 17.8842 7.7421 -202.611 71.2327 -196.627
lowerback 6.02602 2.79708 0.650882
upperback 3.53864 3.86183 0.774935
thorax 0.258601 1.97892 0.212597
lowerneck -4.37165 -0.689744 -1.96329
upperneck 19.1713 -0.849891 3.85607
head 6.56064 -0.0115718 1.53206
rclavicle -4.23411e-014 -3.97569e-015
rhumerus 50.0186 29.0064 -44.8739
rradius 75.0414
rwrist 41.8011
rhand -52.7037 -23.4962
rfingers 7.12502
rthumb -25.1819 -51.855
lclavicle -4.23411e-014 -3.97569e-015
lhumerus 14.0435 -7.33133 49.6901
lradius 91.2681
lwrist -30.6203
lhand -39.223 41.3066
lfingers 7.12502
lthumb -12.2187 70.9297
rfemur -2.82965 11.8212 10.6162
rtibia 40.2867
rfoot -29.7587 -20.541
rtoes -4.77633
lfemur -14.5797 -12.6657 -11.3012
ltibia 27.077
lfoot -5.1125 4.1133
ltoes -15.8102
